<svg width="81" height="82" viewBox="0 0 81 82" fill="none" xmlns="http://www.w3.org/2000/svg">
<path d="M41.4795 0.859035C39.2396 1.00781 36.5782 1.94179 34.6193 3.24771C32.1397 4.90905 30.2635 7.01671 28.9989 9.56243C27.726 12.1329 27.3293 14.2158 27.5359 17.1831C27.693 19.3403 27.9657 20.4148 28.8336 22.2249C29.6353 23.9028 30.5114 25.1839 31.7264 26.4568C33.5117 28.333 35.7599 29.7877 38.1073 30.5977C38.5288 30.7465 38.9173 30.9201 38.9669 30.9862C39.0495 31.0771 38.9751 31.3251 38.628 32.1929C37.5452 34.8874 37.4295 35.4825 37.4295 38.1192C37.4378 41.0038 37.7105 42.2601 38.8264 44.5248C40.4712 47.8723 43.0417 50.4428 46.3395 52.0049C50.1251 53.7985 54.0676 53.9307 58.0515 52.3851C62.5727 50.6329 66.1763 46.5581 67.3831 41.822C67.7798 40.2764 67.8459 39.764 67.8459 38.0365C67.8459 36.6893 67.8129 36.276 67.6558 35.4908C66.821 31.3746 64.4241 27.8536 60.8039 25.4153C59.8864 24.8037 58.3987 24.0681 57.1837 23.6135C56.7291 23.4482 56.3489 23.2994 56.3323 23.2911C56.3241 23.2746 56.4811 22.8779 56.6795 22.4068C57.63 20.1999 58.192 16.9764 57.9771 15.0258C57.6878 12.4388 56.7208 9.74427 55.3488 7.66967C54.6875 6.6613 52.365 4.29741 51.2987 3.54527C48.6208 1.64424 44.9014 0.627605 41.4795 0.859035ZM45.1328 4.43792C47.381 4.8016 49.282 5.80997 51.0756 7.59528C52.4724 8.97559 53.2163 10.0997 53.8775 11.8354C54.3982 13.2074 54.4561 13.6124 54.4561 16.092C54.4478 18.5799 54.39 19.0097 53.8693 20.3735C53.5221 21.2744 52.894 22.5059 52.6791 22.7043C52.5633 22.8118 52.2823 22.8614 51.5798 22.9192C51.0673 22.9523 50.2738 23.068 49.8193 23.1672C48.7613 23.3903 46.9677 23.9854 46.1742 24.3574C45.2568 24.8037 43.488 26.0187 42.554 26.8535C42.0994 27.2668 41.6448 27.6387 41.5457 27.6883C41.0663 27.9445 39.6198 27.6552 38.0411 26.9858C36.2228 26.2088 35.3549 25.6054 33.9994 24.1673C32.991 23.1093 32.6108 22.5638 32.024 21.3323C31.09 19.3734 30.933 18.6212 30.933 16.0507C30.933 14.0918 31.0404 13.257 31.4041 12.2321C33.0406 7.67793 36.5782 4.82639 41.2729 4.28088C41.8432 4.21476 44.3889 4.31394 45.1328 4.43792ZM54.828 26.5064C56.4563 26.7626 57.9275 27.3329 59.3079 28.2504C61.4403 29.672 63.0768 31.8375 63.986 34.4576L64.2919 35.3503V38.1605C64.2919 40.8798 64.2836 40.9872 64.1017 41.5823C63.1347 44.6322 60.9527 47.3598 58.4235 48.674C57.5887 49.1038 56.291 49.5584 55.2082 49.7898C54.4892 49.9468 54.1172 49.9716 52.5551 49.9799C50.9433 49.9799 50.6375 49.9551 49.8771 49.7898C48.315 49.4344 46.9594 48.8476 45.7527 47.9797C43.24 46.1779 41.6614 43.7974 41.0167 40.8467C39.9422 35.904 41.9093 30.8539 45.9345 28.2421C47.2735 27.3742 48.4389 26.9114 50.3482 26.5064C51.2161 26.3163 51.4475 26.2997 52.6377 26.3411C53.3651 26.3576 54.3487 26.4402 54.828 26.5064Z" fill="url(#paint0_linear_19_36)"/>
<path d="M42.1986 6.63643C41.6944 6.89265 41.2894 7.41337 41.1902 7.95888C41.0993 8.44654 41.0497 8.49613 40.3224 8.8846C39.6033 9.26481 38.4131 10.4798 38.0742 11.1741C37.4378 12.4966 37.537 13.9678 38.347 15.1911C38.9917 16.1581 40.2811 16.9598 42.43 17.7285C44.4385 18.4559 44.6617 18.6046 44.6617 19.2328C44.6617 20.1172 44.1988 20.5139 43.0913 20.58C42.3061 20.6214 41.6944 20.4313 40.6282 19.7948C39.1239 18.9022 38.5205 18.7699 37.9337 19.2245C37.0328 19.9106 36.9501 21.076 37.7519 21.8777C38.2974 22.4232 40.0166 23.3903 40.9588 23.6878C41.0993 23.7291 41.1324 23.8201 41.2316 24.4234C41.3721 25.283 42.7441 25.9938 43.4963 25.5971C43.8682 25.407 44.4055 24.7458 44.4633 24.4069C44.5625 23.8035 44.6452 23.7043 45.3394 23.3241C46.9429 22.448 48.1331 20.6875 48.1331 19.1749C48.1331 18.6873 47.8273 17.6954 47.5215 17.2243C46.8272 16.125 45.5213 15.2324 43.645 14.5711C41.3969 13.7859 41.0249 13.5297 41.0249 12.7693C41.0249 12.0668 41.5787 11.6535 42.5954 11.6039C43.5376 11.5543 43.8352 11.67 44.546 12.3395C45.2651 13.0173 45.6205 13.1908 46.1164 13.1165C46.6288 13.0421 47.2239 12.6123 47.4554 12.1659C47.6124 11.8601 47.6455 11.7031 47.6124 11.3146C47.538 10.4385 46.8768 9.67807 45.4965 8.86807C44.6947 8.39695 44.4964 8.19858 44.4964 7.88449C44.4964 7.78531 44.422 7.56215 44.3393 7.38857C43.9178 6.56204 43.0004 6.23969 42.1986 6.63643Z" fill="url(#paint1_linear_19_36)"/>
<path d="M52.1418 27.2255C51.7616 27.2999 51.2491 27.6884 51.0673 28.0355C51.0012 28.1678 50.9185 28.4901 50.8937 28.7546C50.8607 29.0191 50.8028 29.2836 50.7532 29.3415C50.7036 29.4076 50.3813 29.5977 50.0424 29.7712C48.7778 30.3994 47.7859 31.3417 47.2322 32.441C46.4966 33.8874 46.5544 35.5322 47.3892 36.7803C48.2488 38.0614 49.6374 38.921 52.4311 39.8963C54.4643 40.6071 54.952 40.979 54.9437 41.8304C54.9355 42.6238 54.4974 43.2437 53.8031 43.4504C53.2576 43.6157 51.9682 43.6074 51.3235 43.4421C50.6953 43.2768 50.0093 42.9379 49.2076 42.3841C48.8687 42.1445 48.4637 41.9048 48.3149 41.8386C47.9017 41.6816 47.2735 41.7725 46.8685 42.0618C45.9428 42.7065 45.9015 43.9132 46.7858 44.748C47.1826 45.1282 48.6869 46.0044 49.7696 46.4672C50.2077 46.6656 50.6292 46.8722 50.7036 46.9383C50.7863 47.0045 50.8607 47.2524 50.8937 47.5335C51.0921 49.2857 53.4394 49.575 54.1172 47.9385C54.1916 47.7649 54.2494 47.5169 54.2494 47.3764C54.2494 46.9714 54.3652 46.8392 55.0512 46.4672C56.572 45.649 57.7457 44.3513 58.1589 43.0371C58.2912 42.599 58.3325 42.2602 58.3242 41.6733C58.316 40.4418 57.9771 39.6814 57.0266 38.7309C56.0513 37.7638 54.8776 37.1109 52.9683 36.4744C51.0508 35.838 50.5383 35.557 50.2325 34.9701C50.0672 34.6478 50.092 34.0114 50.2821 33.5981C50.5879 32.9121 51.6872 32.4988 52.8939 32.6063C53.6461 32.6806 53.9519 32.8377 54.7123 33.5733C55.0925 33.937 55.4975 34.2511 55.6132 34.2841C55.7289 34.3089 56.043 34.3172 56.3158 34.3007C56.7042 34.2759 56.8778 34.218 57.1175 34.0196C57.7539 33.5154 57.9606 32.722 57.6382 32.0194C57.3159 31.3086 56.1257 30.2589 55.0181 29.6969C54.4478 29.4158 54.2908 29.2257 54.1998 28.7381C54.0097 27.6636 53.1336 27.0272 52.1418 27.2255Z" fill="url(#paint2_linear_19_36)"/>
<path d="M5.07075 54.3275C1.71502 54.3853 1.23563 54.4184 0.772775 54.6415C0.442162 54.7986 0.293386 55.0548 0.177671 55.7078C0.119814 56.0136 0.0784872 60.5347 0.0536912 68.3207L0.0206299 80.4624L0.582673 81.041L1.14472 81.6113L7.96361 81.57C16.0223 81.5121 16.2951 81.4873 16.667 80.8592C16.8488 80.5534 16.9728 79.2061 16.9728 77.5861V76.2471L17.9895 75.9744C19.783 75.495 21.0146 75.2966 22.8164 75.1809L23.6595 75.1313L25.6266 75.9165C30.9908 78.0738 34.7598 79.1483 39.7851 79.9748C42.3309 80.3963 43.4963 80.512 46.0916 80.6195C48.4637 80.7187 52.0344 80.6278 53.5469 80.4294C54.7785 80.2723 56.1092 79.9583 56.9357 79.6276C60.0104 78.3961 73.8549 72.1888 77.2767 70.511C78.8388 69.7423 79.7563 68.8827 80.3845 67.6016C80.8639 66.6428 80.9878 66.0808 80.9796 64.8988C80.9713 64.0144 80.9382 63.7665 80.7564 63.2044C80.4589 62.2952 80.0208 61.5844 79.3348 60.8819C78.2685 59.7991 76.8965 59.204 75.2848 59.1296C74.7558 59.1131 74.1855 59.1296 73.9375 59.1875C73.2763 59.328 70.4578 60.5595 62.8289 64.064L59.374 65.6427L58.7541 65.1551C57.5226 64.1715 57.1919 64.0475 51.3566 62.3283C44.7196 60.3694 36.6526 58.1213 35.5285 57.9146C33.892 57.6171 30.3461 57.3774 27.3871 57.3774C25.1555 57.3774 22.6924 57.5014 19.6673 57.7493C18.3035 57.865 17.1381 57.9394 17.0803 57.9229C16.9976 57.8898 16.9728 57.6419 16.9728 56.9476C16.9646 55.8483 16.8736 55.3772 16.5844 54.997C16.1711 54.4514 15.9066 54.3936 13.4766 54.3523C8.83974 54.2779 8.15372 54.2779 5.07075 54.3275ZM13.584 67.9983V78.206H8.50086H3.41768V67.9983V57.7906H8.50086H13.584V67.9983ZM32.5943 61.0141C34.5036 61.105 34.8425 61.1546 36.355 61.5679C40.1819 62.5928 51.5715 65.9155 55.0595 67.0147C56.3819 67.4363 56.7869 67.7008 57.0845 68.362C57.5308 69.3786 57.0432 71.197 56.1257 71.8748C55.5141 72.3211 54.3817 72.0649 44.9097 69.2795C40.8596 68.0892 36.9005 66.9486 35.1566 66.4692L33.6275 66.0477L33.1729 66.2791C32.5612 66.6015 32.2472 67.0561 32.1976 67.7008C32.1562 68.2793 32.3216 68.6926 32.7183 68.9984C32.8671 69.1059 33.5035 69.3704 34.1317 69.577C38.1486 70.8829 50.0672 74.4122 52.6873 75.0652C54.638 75.5528 55.9356 75.4785 57.2994 74.809C57.878 74.5279 58.1425 74.313 58.8367 73.627C60.1096 72.3624 60.4319 71.6103 60.6716 69.3704L60.7378 68.7505L64.8704 66.8742C73.3093 63.0226 74.9128 62.3366 75.4253 62.3366C75.8964 62.3366 76.5742 62.6754 76.8965 63.0639C77.5412 63.8409 77.9214 65.0641 77.7313 65.7502C77.5495 66.3948 77.2354 66.6676 75.9708 67.304C72.1687 69.2051 56.8696 76.0901 54.9934 76.7348C53.7784 77.148 51.3153 77.4043 48.5464 77.4043C41.868 77.3877 34.5615 75.8587 27.4285 72.9575C26.3622 72.5277 25.2382 72.1145 24.9323 72.0401C24.5191 71.9409 23.8992 71.8996 22.5519 71.8913L20.7336 71.883L19.0392 72.2384C18.1052 72.4285 17.2621 72.6104 17.1547 72.6269L16.9728 72.6682L16.9894 67.0726L17.0142 61.4687L17.4522 61.4026C17.6836 61.3613 18.7085 61.2455 19.7252 61.1381C21.3948 60.9645 21.9734 60.948 26.23 60.9397C28.8005 60.9397 31.6603 60.9728 32.5943 61.0141Z" fill="url(#paint3_linear_19_36)"/>
<defs>
<linearGradient id="paint0_linear_19_36" x1="47.665" y1="53.4546" x2="47.665" y2="0.826553" gradientUnits="userSpaceOnUse">
<stop stop-color="#012AC0"/>
<stop offset="1" stop-color="#2D5AFF"/>
</linearGradient>
<linearGradient id="paint1_linear_19_36" x1="42.6668" y1="25.71" x2="42.6668" y2="6.46745" gradientUnits="userSpaceOnUse">
<stop stop-color="#012AC0"/>
<stop offset="1" stop-color="#2D5AFF"/>
</linearGradient>
<linearGradient id="paint2_linear_19_36" x1="52.2364" y1="49.02" x2="52.2364" y2="27.1895" gradientUnits="userSpaceOnUse">
<stop stop-color="#012AC0"/>
<stop offset="1" stop-color="#2D5AFF"/>
</linearGradient>
<linearGradient id="paint3_linear_19_36" x1="40.5003" y1="81.6113" x2="40.5003" y2="54.2929" gradientUnits="userSpaceOnUse">
<stop stop-color="#012AC0"/>
<stop offset="1" stop-color="#2D5AFF"/>
</linearGradient>
</defs>
</svg>
