<svg width="24" height="22" viewBox="0 0 24 22" fill="none" xmlns="http://www.w3.org/2000/svg">
<path fill-rule="evenodd" clip-rule="evenodd" d="M5.25219 12.8565C5.30326 12.8737 5.3548 12.886 5.4063 12.8934C5.46245 13.0254 5.53502 13.1961 5.61967 13.3958C5.82625 13.883 6.10461 14.542 6.39193 15.2294C6.97788 16.6314 7.56893 18.0766 7.69947 18.4903C7.86106 19.0016 8.03188 19.3493 8.21835 19.5866C8.31477 19.7094 8.42628 19.8166 8.55676 19.8977C8.62245 19.9386 8.69183 19.9721 8.76426 19.997C8.76745 19.9981 8.77064 19.9992 8.77382 20.0003C9.14717 20.1412 9.48756 20.0825 9.70068 20.0107C9.81471 19.9723 9.90697 19.9259 9.97236 19.8883C10.0057 19.8692 10.0339 19.8513 10.0563 19.8362L10.0616 19.8326L13.3589 17.7764L17.1675 20.6963C17.2237 20.7394 17.285 20.7755 17.3499 20.8039C17.8075 21.0035 18.2505 21.0732 18.6673 21.0162C19.0834 20.9594 19.4138 20.7846 19.6597 20.5878C19.9005 20.3952 20.0638 20.1794 20.1654 20.019C20.2173 19.9372 20.2563 19.8647 20.2838 19.8093C20.2976 19.7814 20.3087 19.7574 20.3173 19.7381L20.3283 19.7126L20.3324 19.7027L20.3342 19.6984L20.335 19.6964L20.3357 19.6946C20.3557 19.6446 20.3711 19.5928 20.3816 19.5399L23.8585 2.01019C23.8696 1.95413 23.8752 1.89711 23.8752 1.83995C23.8752 1.3266 23.6818 0.838469 23.227 0.54226C22.8383 0.289096 22.4052 0.278199 22.1315 0.298972C21.8363 0.321379 21.5637 0.394258 21.3807 0.452493C21.2855 0.4828 21.2057 0.512041 21.1481 0.534349C21.1192 0.545561 21.0955 0.55518 21.0778 0.562516L21.0645 0.568101L1.56519 8.2174L1.56266 8.21831C1.55024 8.22283 1.53428 8.22879 1.51532 8.23617C1.47757 8.25087 1.42698 8.27158 1.36788 8.29836C1.25263 8.3506 1.09096 8.43223 0.925047 8.54584C0.659994 8.72735 0.0504218 9.22447 0.153066 10.045C0.234953 10.6996 0.683398 11.1016 0.956619 11.2949C1.10664 11.4011 1.24917 11.477 1.35297 11.5264C1.40112 11.5493 1.5011 11.5899 1.54448 11.6076L1.55543 11.612L5.25219 12.8565ZM21.7469 2.1795L21.7442 2.18068C21.7345 2.1849 21.7247 2.18895 21.7149 2.19281L2.19186 9.8514C2.18167 9.8554 2.1714 9.85921 2.16106 9.86282L2.1502 9.86695C2.13771 9.87181 2.11668 9.88034 2.09029 9.8923C2.07532 9.89908 2.0597 9.90649 2.04378 9.91443C2.06566 9.92675 2.08659 9.93746 2.1052 9.94631C2.12306 9.95481 2.13669 9.96063 2.14414 9.96369L5.81054 11.198C5.87765 11.2206 5.94021 11.2505 5.99763 11.2866L18.1039 4.19972L18.1152 4.19302C18.124 4.18781 18.1356 4.18111 18.1495 4.17326C18.177 4.15769 18.2149 4.13695 18.2599 4.11403C18.3439 4.07127 18.4784 4.00779 18.6298 3.96099C18.7352 3.9284 19.0461 3.8366 19.3822 3.9444C19.5897 4.01094 19.8045 4.15398 19.9442 4.39631C20.0136 4.51669 20.0505 4.63763 20.0684 4.74833C20.116 4.92273 20.1085 5.09493 20.0713 5.24361C19.991 5.56387 19.766 5.81368 19.5613 6.00475C19.3859 6.16857 17.1163 8.35706 14.8773 10.5175C13.7607 11.5948 12.6555 12.6615 11.8295 13.4589L11.2869 13.9827L18.1375 19.2348C18.2946 19.2911 18.3875 19.2882 18.4305 19.2823C18.4817 19.2753 18.5236 19.2556 18.5664 19.2214C18.6142 19.1831 18.6561 19.1314 18.6874 19.082L18.6887 19.08L22.0609 2.07818C22.0109 2.09021 21.9603 2.10453 21.9115 2.12006C21.8562 2.13764 21.8107 2.15439 21.7805 2.16609C21.7655 2.17189 21.7548 2.17628 21.7489 2.17871L21.7469 2.1795ZM11.8755 16.639L10.5087 15.5912L10.1776 17.6979L11.8755 16.639ZM9.25493 13.512L10.6141 12.1998C11.4402 11.4024 12.5454 10.3356 13.6621 9.25811L14.7967 8.1635L7.19001 12.6164L7.23083 12.7126C7.43814 13.2016 7.71774 13.8635 8.00659 14.5546C8.22257 15.0714 8.44842 15.6155 8.65414 16.1193L8.98434 14.0188C9.01618 13.8163 9.11511 13.641 9.25493 13.512Z" fill="white"/>
</svg>
