<svg width="23" height="28" viewBox="0 0 23 28" fill="none" xmlns="http://www.w3.org/2000/svg">
<path fill-rule="evenodd" clip-rule="evenodd" d="M14.5938 1.29102C14.5938 1.10117 14.4398 0.947266 14.25 0.947266H4.625C2.53667 0.947266 0.84375 2.64019 0.84375 4.72852V23.9785C0.84375 26.0668 2.53667 27.7598 4.625 27.7598H18.375C20.4633 27.7598 22.1562 26.0668 22.1562 23.9785V10.4307C22.1562 10.2409 22.0023 10.087 21.8125 10.087H15.625C15.0555 10.087 14.5938 9.62527 14.5938 9.05572V1.29102ZM15.625 14.6973C16.1945 14.6973 16.6562 15.159 16.6562 15.7285C16.6562 16.2981 16.1945 16.7598 15.625 16.7598H7.375C6.80546 16.7598 6.34375 16.2981 6.34375 15.7285C6.34375 15.159 6.80546 14.6973 7.375 14.6973H15.625ZM15.625 20.1973C16.1945 20.1973 16.6562 20.659 16.6562 21.2285C16.6562 21.7981 16.1945 22.2598 15.625 22.2598H7.375C6.80546 22.2598 6.34375 21.7981 6.34375 21.2285C6.34375 20.659 6.80546 20.1973 7.375 20.1973H15.625Z" fill="#252525"/>
<path d="M16.6562 1.7367C16.6562 1.48302 16.9211 1.32195 17.1185 1.4813C17.2848 1.61551 17.4342 1.77276 17.5617 1.9504L21.7048 7.72251C21.7991 7.85392 21.697 8.02447 21.5352 8.02447H17C16.8102 8.02447 16.6562 7.87057 16.6562 7.68072V1.7367Z" fill="#252525"/>
</svg>
