<svg width="23" height="25" viewBox="0 0 23 25" fill="none" xmlns="http://www.w3.org/2000/svg">
<path fill-rule="evenodd" clip-rule="evenodd" d="M16.9557 1.56555C13.2851 0.745076 9.47872 0.745076 5.80816 1.56555L5.41263 1.65397C3.30704 2.12463 1.64518 3.7396 1.11448 5.83087C0.18409 9.4971 0.18409 13.3377 1.11448 17.0039C1.62143 19.0015 3.16052 20.5646 5.13258 21.1108L5.67469 24.3492C5.7098 24.5589 5.85623 24.7329 6.05685 24.8033C6.25748 24.8737 6.48053 24.8294 6.63899 24.6876L9.82482 21.8371C12.21 21.9827 14.6106 21.7934 16.9557 21.2692L17.3512 21.1808C19.4568 20.7101 21.1187 19.0952 21.6494 17.0039C22.5798 13.3377 22.5798 9.4971 21.6494 5.83087C21.1187 3.7396 19.4568 2.12463 17.3512 1.65397L16.9557 1.56555ZM6.7922 5.73563C6.57548 5.70397 6.35446 5.74747 6.16591 5.8589H6.14984C5.7121 6.11549 5.31777 6.4398 4.98149 6.81976C4.70204 7.14285 4.55045 7.46977 4.51063 7.78445C4.4869 7.97202 4.50298 8.1596 4.55887 8.33876L4.57877 8.35101C4.89345 9.27588 5.30459 10.1655 5.80684 11.0031C6.45381 12.1799 7.25 13.2681 8.17568 14.241L8.20324 14.2808L8.24688 14.3129L8.27445 14.3451L8.3066 14.3726C9.28295 15.301 10.3739 16.101 11.5529 16.753C12.9004 17.4864 13.718 17.8333 14.2088 17.9772V17.9849C14.3527 18.0285 14.4837 18.0484 14.6154 18.0484C15.0336 18.0178 15.4296 17.848 15.7401 17.5661C16.1183 17.2297 16.439 16.8338 16.6894 16.3939V16.3862C16.9245 15.9437 16.8449 15.5249 16.5057 15.2416C15.8264 14.6479 15.0919 14.1205 14.3122 13.6667C13.79 13.3835 13.2594 13.555 13.0443 13.8421L12.5857 14.4201C12.3506 14.7072 11.9234 14.6674 11.9234 14.6674L11.9112 14.6751C8.7254 13.8612 7.87556 10.6356 7.87556 10.6356C7.87556 10.6356 7.83574 10.1969 8.13051 9.97337L8.70473 9.51093C8.97959 9.28737 9.17099 8.75756 8.87623 8.23463C8.42558 7.45381 7.89937 6.71912 7.30516 6.04112C7.17526 5.88128 6.99302 5.77253 6.79066 5.7341L6.7922 5.73563ZM12.1758 4.33352C11.8536 4.33352 11.5925 4.59469 11.5925 4.91685C11.5925 5.23902 11.8536 5.50019 12.1758 5.50019C13.651 5.50019 14.8769 5.98239 15.8452 6.90573C16.3438 7.41136 16.7318 8.00986 16.9866 8.66482C17.2423 9.32223 17.3586 10.0232 17.3288 10.7254C17.3151 11.0473 17.5649 11.3193 17.8868 11.333C18.2087 11.3467 18.4807 11.0968 18.4944 10.775C18.5311 9.91113 18.388 9.04924 18.0739 8.24186C17.7598 7.4345 17.2818 6.69879 16.6692 6.07941L16.6575 6.0682C15.4559 4.919 13.9327 4.33352 12.1758 4.33352ZM12.1361 6.2519C11.8139 6.2519 11.5528 6.51307 11.5528 6.83524C11.5528 7.1574 11.8139 7.41857 12.1361 7.41857H12.1552C13.2197 7.49359 13.9943 7.84842 14.5373 8.43086C15.0932 9.03072 15.3812 9.77579 15.3599 10.6976C15.3524 11.0197 15.6075 11.2869 15.9295 11.2943C16.2516 11.3018 16.5188 11.0467 16.5262 10.7247C16.5542 9.51424 16.165 8.4705 15.3923 7.63711L15.3913 7.63602C14.6019 6.78892 13.519 6.34079 12.2143 6.25321L12.1947 6.2519H12.1361ZM12.114 8.20531C11.7923 8.18838 11.5178 8.43546 11.5008 8.75718C11.4839 9.0789 11.731 9.35343 12.0527 9.37037C12.5411 9.39608 12.8525 9.54257 13.0482 9.74026C13.2448 9.93878 13.3919 10.2567 13.4187 10.7551C13.436 11.0768 13.7109 11.3236 14.0326 11.3063C14.3543 11.289 14.601 11.0142 14.5837 10.6925C14.5461 9.99243 14.327 9.37354 13.8772 8.91932C13.4265 8.46425 12.8112 8.24201 12.114 8.20531Z" fill="white"/>
</svg>
