<svg width="25" height="23" viewBox="0 0 25 23" fill="none" xmlns="http://www.w3.org/2000/svg">
<path d="M22.015 1.74227C21.74 0.931016 20.97 0.353516 20.0625 0.353516H4.9375C4.03 0.353516 3.27375 0.931016 2.985 1.74227L0.125 9.97852V20.9785C0.125 21.7348 0.74375 22.3535 1.5 22.3535H2.875C3.63125 22.3535 4.25 21.7348 4.25 20.9785V19.6035H20.75V20.9785C20.75 21.7348 21.3687 22.3535 22.125 22.3535H23.5C24.2563 22.3535 24.875 21.7348 24.875 20.9785V9.97852L22.015 1.74227ZM5.41875 3.10352H19.5675L20.9975 7.22852H3.98875L5.41875 3.10352ZM22.125 16.8535H2.875V9.97852H22.125V16.8535Z" fill="#252525"/>
<path d="M6.3125 15.4785C7.45159 15.4785 8.375 14.5551 8.375 13.416C8.375 12.2769 7.45159 11.3535 6.3125 11.3535C5.17341 11.3535 4.25 12.2769 4.25 13.416C4.25 14.5551 5.17341 15.4785 6.3125 15.4785Z" fill="#252525"/>
<path d="M18.6875 15.4785C19.8266 15.4785 20.75 14.5551 20.75 13.416C20.75 12.2769 19.8266 11.3535 18.6875 11.3535C17.5484 11.3535 16.625 12.2769 16.625 13.416C16.625 14.5551 17.5484 15.4785 18.6875 15.4785Z" fill="#252525"/>
</svg>
