<svg width="29" height="20" viewBox="0 0 29 20" fill="none" xmlns="http://www.w3.org/2000/svg">
<path fill-rule="evenodd" clip-rule="evenodd" d="M11.7501 0.728516C10.2313 0.728516 9.00012 1.95973 9.00012 3.47852L4.87512 3.47852C2.59695 3.47852 0.750122 5.32534 0.750122 7.60352V15.8535C0.750122 18.1317 2.59695 19.9785 4.87512 19.9785H24.1251C26.4033 19.9785 28.2501 18.1317 28.2501 15.8535V7.60352C28.2501 5.32534 26.4033 3.47852 24.1251 3.47852H20.0001C20.0001 1.95973 18.7689 0.728516 17.2501 0.728516H11.7501ZM21.3751 11.7285C21.3751 15.5255 18.2971 18.6035 14.5001 18.6035C10.7032 18.6035 7.62512 15.5255 7.62512 11.7285C7.62512 7.93156 10.7032 4.85352 14.5001 4.85352C18.2971 4.85352 21.3751 7.93156 21.3751 11.7285ZM22.7501 7.60352C21.9907 7.60352 21.3751 6.98791 21.3751 6.22852C21.3751 5.46912 21.9907 4.85352 22.7501 4.85352C23.5095 4.85352 24.1251 5.46912 24.1251 6.22852C24.1251 6.98791 23.5095 7.60352 22.7501 7.60352Z" fill="#252525"/>
<path d="M18.6251 11.7285C18.6251 14.0067 16.7783 15.8535 14.5001 15.8535C12.2219 15.8535 10.3751 14.0067 10.3751 11.7285C10.3751 9.45034 12.2219 7.60352 14.5001 7.60352C16.7783 7.60352 18.6251 9.45034 18.6251 11.7285Z" fill="#252525"/>
</svg>
