<svg width="25" height="25" viewBox="0 0 25 25" fill="none" xmlns="http://www.w3.org/2000/svg">
<path d="M20.7234 4.22801C18.5417 2.03467 15.6367 0.833008 12.5451 0.833008C6.17508 0.833008 0.983409 6.02467 0.983409 12.3947C0.983409 14.4363 1.52008 16.4197 2.52341 18.1697L0.890076 24.1663L7.01508 22.5563C8.70674 23.478 10.6084 23.968 12.5451 23.968C18.9151 23.968 24.1067 18.7763 24.1067 12.4063C24.1067 9.31468 22.9051 6.40967 20.7234 4.22801ZM12.5451 22.008C10.8184 22.008 9.12674 21.5413 7.64508 20.6663L7.29508 20.4563L3.65508 21.413L4.62341 17.8663L4.39008 17.5047C3.43341 15.9763 2.92008 14.203 2.92008 12.3947C2.92008 7.09801 7.23674 2.78134 12.5334 2.78134C15.1001 2.78134 17.5151 3.78467 19.3234 5.60467C21.1434 7.42467 22.1351 9.83967 22.1351 12.4063C22.1584 17.703 17.8417 22.008 12.5451 22.008ZM17.8184 14.8213C17.5267 14.6813 16.1034 13.9813 15.8467 13.8763C15.5784 13.783 15.3917 13.7363 15.1934 14.0163C14.9951 14.308 14.4467 14.9613 14.2834 15.148C14.1201 15.3463 13.9451 15.3697 13.6534 15.218C13.3617 15.078 12.4284 14.763 11.3317 13.783C10.4684 13.013 9.89674 12.068 9.72174 11.7763C9.55841 11.4847 9.69841 11.333 9.85007 11.1813C9.97841 11.053 10.1417 10.843 10.2817 10.6797C10.4217 10.5163 10.4801 10.388 10.5734 10.2013C10.6667 10.003 10.6201 9.83968 10.5501 9.69968C10.4801 9.55968 9.89674 8.13634 9.66341 7.55301C9.43007 6.99301 9.18508 7.06301 9.01008 7.05134C8.83508 7.05134 8.64841 7.05134 8.45007 7.05134C8.25174 7.05134 7.94841 7.12134 7.68008 7.41301C7.42341 7.70467 6.67674 8.40468 6.67674 9.82801C6.67674 11.2513 7.71508 12.628 7.85508 12.8147C7.99508 13.013 9.89674 15.9297 12.7901 17.178C13.4784 17.4813 14.0151 17.6563 14.4351 17.7847C15.1234 18.0063 15.7534 17.9713 16.2551 17.9013C16.8151 17.8197 17.9701 17.2013 18.2034 16.5247C18.4484 15.848 18.4484 15.2763 18.3667 15.148C18.2851 15.0197 18.1101 14.9613 17.8184 14.8213Z" fill="white"/>
</svg>
